<svg width="115" height="49" viewBox="0 0 115 49" fill="none" xmlns="http://www.w3.org/2000/svg">
<path d="M52.1067 21.9962V35.3946H49.0384V14.4302L62.7692 28.4219V14.9517H65.8393V35.9927L52.1067 21.9962ZM83.914 14.1294C77.9069 14.1294 73.0216 19.0983 73.0216 25.2106C73.0216 31.32 77.9069 36.2886 83.914 36.2886C89.9192 36.2886 94.8068 31.32 94.8068 25.2106C94.8068 19.0983 89.9192 14.1294 83.914 14.1294ZM83.914 33.1419C79.6562 33.1419 76.1896 29.5831 76.1896 25.2106C76.1896 20.8375 79.6562 17.2794 83.914 17.2794C88.1735 17.2794 91.6363 20.8375 91.6363 25.2106C91.6363 29.5832 88.1735 33.1419 83.914 33.1419ZM30.9534 14.1294C24.9465 14.1294 20.0609 19.0983 20.0609 25.2106C20.0609 31.32 24.9465 36.2886 30.9534 36.2886C36.9615 36.2886 41.8458 31.32 41.8458 25.2106C41.8458 19.0983 36.9617 14.1294 30.9534 14.1294ZM30.9534 33.1419C26.6939 33.1419 23.2315 29.5831 23.2315 25.2106C23.2315 20.8375 26.6939 17.2794 30.9534 17.2794C35.2115 17.2794 38.6775 20.8375 38.6775 25.2106C38.6776 29.5832 35.2115 33.1419 30.9534 33.1419ZM6.69995 26.7672L6.68753 26.7619C4.6367 26.0993 3.26395 25.4464 2.22969 24.6422C0.751271 23.4967 0 22.0348 0 20.2981C0 18.6717 0.74351 17.0867 2.03913 15.9408C3.36281 14.7718 5.18678 14.1294 7.17338 14.1294C11.3318 14.1294 13.7081 16.9478 13.8078 17.0687L11.2846 18.8028C10.7002 18.3587 9.16486 17.3617 7.17326 17.3617C4.67192 17.3617 3.17678 18.8545 3.17678 20.2981C3.17678 21.3051 3.7197 22.4125 7.64811 23.6843L7.66328 23.6868C9.70874 24.3474 11.0865 25.0023 12.1196 25.8042C13.5994 26.9523 14.3496 28.4142 14.3496 30.1511C14.3496 31.7774 13.6059 33.3649 12.3075 34.5084C10.9867 35.675 9.16331 36.3172 7.17457 36.3172C3.0175 36.3172 0.640945 33.5014 0.541484 33.3799L3.0667 31.646C3.65021 32.091 5.18559 33.0876 7.17445 33.0876C9.67686 33.0876 11.1732 31.5978 11.1732 30.1511C11.1735 29.144 10.6321 28.0364 6.69995 26.7672ZM107.22 26.7672L107.206 26.7619C105.157 26.0993 103.783 25.4464 102.75 24.6421C101.273 23.4963 100.518 22.0344 100.518 20.2977C100.518 18.6713 101.264 17.0864 102.561 15.9405C103.88 14.7718 105.702 14.1294 107.694 14.1294C111.852 14.1294 114.23 16.9478 114.331 17.0687L111.804 18.8028C111.221 18.3587 109.686 17.3617 107.694 17.3617C105.191 17.3617 103.695 18.8545 103.695 20.2981C103.695 21.3051 104.239 22.4125 108.17 23.6843L108.185 23.6868C110.233 24.3474 111.606 25.0023 112.641 25.8042C114.117 26.9523 114.869 28.4142 114.869 30.1511C114.869 31.7774 114.126 33.3649 112.831 34.5084C111.508 35.675 109.684 36.3172 107.694 36.3172C103.537 36.3172 101.163 33.5014 101.062 33.3799L103.586 31.646C104.171 32.091 105.702 33.0876 107.694 33.0876C110.199 33.0876 111.691 31.5978 111.691 30.1511C111.691 29.144 111.15 28.0364 107.22 26.7672Z" fill="#222222"/>
</svg>
